<svg width="130" height="147" viewBox="0 0 130 147" fill="none" xmlns="http://www.w3.org/2000/svg">
<ellipse cx="65" cy="85.4741" rx="65" ry="60.9824" fill="#EF14E7"/>
<path d="M83.517 49.3034C83.8557 51.5041 83.1779 53.9038 81.4837 56.5026C79.7835 59.0627 77.8178 60.5395 75.5866 60.9329C73.3938 61.3196 72.1192 60.3546 71.7627 58.0382C71.4062 55.7217 72.0293 53.3515 73.6319 50.9275C75.267 48.4581 77.2579 47.0165 79.6045 46.6027C80.6431 46.4196 81.5148 46.5633 82.2194 47.0339C82.9241 47.5045 83.3566 48.261 83.517 49.3034ZM81.9497 101.509C82.1279 102.667 82.1403 103.518 81.9867 104.06C80.6959 108.253 78.1766 111.91 74.4288 115.029C70.675 118.11 67.2786 119.918 64.2396 120.454C61.2005 120.99 58.4272 120.428 55.9195 118.769C53.4119 117.109 51.9946 115.218 51.6679 113.094C51.3411 110.971 51.9236 107.696 53.4155 103.269C54.9075 98.8417 56.4469 94.7236 58.0339 90.9145C59.6209 87.1053 60.3936 85.0656 60.352 84.7953C60.3045 84.4864 59.8114 83.9785 58.8728 83.2716C57.9727 82.5579 57.493 82.008 57.4336 81.6219C57.3682 81.1972 57.9934 79.9965 59.3092 78.0196C60.6576 75.9974 62.3388 73.9561 64.353 71.8957C66.3997 69.79 68.0193 68.632 69.2119 68.4217C70.4429 68.2046 71.6224 68.5518 72.7505 69.4633C73.8786 70.3747 74.511 71.2744 74.6476 72.1624C74.7843 73.0504 71.4929 82.2162 64.7733 99.6599C64.6936 99.9119 64.4468 100.491 64.033 101.396C63.6517 102.257 63.3488 102.984 63.1243 103.579C62.9322 104.129 62.7003 104.804 62.4285 105.605C61.8968 107.285 61.7111 108.646 61.8716 109.689C62.0736 111.002 63.0594 111.502 64.829 111.19C66.5985 110.878 68.3337 109.957 70.0345 108.428C71.7678 106.853 73.214 105.21 74.3731 103.499C77.3891 98.9621 79.1472 96.6495 79.6472 96.5613C80.6474 96.385 81.4149 98.0341 81.9497 101.509Z" fill="#66DBA6"/>
</svg>
